<svg width="30" height="30" viewBox="0 0 30 30" fill="none" xmlns="http://www.w3.org/2000/svg">
<path d="M29.4501 26.8065L23.6436 20.9977C27.9883 15.1917 26.8036 6.96293 20.9977 2.61827C15.1917 -1.72638 6.96293 -0.541735 2.61827 5.26424C-1.72638 11.0702 -0.541736 19.299 5.26424 23.6436C9.92808 27.1336 16.3338 27.1336 20.9977 23.6436L26.8065 29.4525C27.5365 30.1825 28.7201 30.1825 29.45 29.4525C30.18 28.7225 30.18 27.539 29.45 26.8091L29.4501 26.8065ZM13.1794 22.5224C8.01928 22.5224 3.83626 18.3394 3.83626 13.1794C3.83626 8.01928 8.01928 3.83626 13.1794 3.83626C18.3394 3.83626 22.5224 8.01928 22.5224 13.1794C22.517 18.3371 18.3372 22.517 13.1794 22.5224Z" fill="#FF3C00"/>
</svg>
